# xmcd
#
# Track frame offsets:
#	150
#	21482
#	46139
#	66924
#	96602
#	133369
#	156868
#	175288
#	198920
#	232973
#
# Disc length: 3325 seconds
#
# Revision: 1
# Processed by: cddbd v1.5.2PL0 Copyright (c) Steve Scherf et al.
# Submitted via: audiograbber 1.83.01
#
DISCID=8f0cfb0a
DTITLE=Fred Westra - Severe Damage
DYEAR=2012
DGENRE=pop
TTITLE0=Fred Westra - Polyijphonic turbulence
TTITLE1=Fred Westra - Something raw
TTITLE2=Fred Westra - A story og 3 angels
TTITLE3=Fred Westra - Sevre Damage
TTITLE4=Fred Westra - Rude awakening
TTITLE5=Fred Westra - Tranquil mind
TTITLE6=Fred Westra - A little progression of some friendly tones
TTITLE7=Fred Westra - Jabbertalk
TTITLE8=Fred Westra - The wind at my heals
TTITLE9=Fred Westra - A relativesimple song for a very good friend
EXTD=
EXTT0=
EXTT1=
EXTT2=
EXTT3=
EXTT4=
EXTT5=
EXTT6=
EXTT7=
EXTT8=
EXTT9=
PLAYORDER=
